<svg xmlns="http://www.w3.org/2000/svg" viewBox="0 0 512 512" fill="none">
  <defs>
    <linearGradient id="bg" x1="0" y1="0" x2="512" y2="512">
      <stop stop-color="#FF6B2C"/>
      <stop offset="0.5" stop-color="#7C3AED"/>
      <stop offset="1" stop-color="#00F5D4"/>
    </linearGradient>
  </defs>
  <rect width="512" height="512" rx="96" fill="#050508"/>
  <rect x="32" y="32" width="448" height="448" rx="80" fill="#050508" stroke="url(#bg)" stroke-width="8"/>
  <rect x="160" y="96" width="192" height="320" rx="40" fill="#12121f" stroke="url(#bg)" stroke-width="6"/>
  <rect x="176" y="128" width="160" height="224" rx="16" fill="#0a0a14"/>
  <path d="M240 200 L216 224 C210 230 210 240 216 246 L264 294 C270 300 280 300 286 294 L296 284 L240 200Z" fill="#FF6B2C"/>
  <circle cx="224" cy="236" r="20" fill="#00F5D4"/>
  <circle cx="304" cy="304" r="28" fill="none" stroke="#7C3AED" stroke-width="8"/>
  <circle cx="256" cy="384" r="12" fill="url(#bg)"/>
  <rect x="80" y="80" width="112" height="72" rx="24" fill="url(#bg)"/>
  <text x="136" y="128" text-anchor="middle" fill="white" font-size="48" font-weight="800" font-family="Arial Black,Arial,sans-serif">As</text>
  <text x="256" y="468" text-anchor="middle" fill="url(#bg)" font-size="36" font-weight="700" font-family="Arial,sans-serif">Fix &amp; Gear</text>
</svg>
